<?xml version="1.0" encoding="UTF-8"?>
<svg id="Calque_2" data-name="Calque 2" xmlns="http://www.w3.org/2000/svg" viewBox="0 0 200 200">
  <defs>
    <style>
      .cls-1 {
        fill: #f2f4f3;
        stroke-width: 0px;
      }
    </style>
  </defs>
  <g id="Calque_1-2" data-name="Calque 1">
    <path class="cls-1" d="M22.22,0C9.98,0,0,9.98,0,22.22v155.56c0,12.24,9.98,22.22,22.22,22.22h155.56c12.24,0,22.22-9.98,22.22-22.22V22.22c0-12.24-9.98-22.22-22.22-22.22H22.22ZM37.85,52.08h28.82c25.56,0,29.86,15.71,29.86,25.69,0,14.45-9.94,19.01-12.15,20.14,2.21,1.13,13.54,4.17,13.54,20.83,1.13,20.01-11.37,27.78-29.17,27.78h-30.9V52.08ZM115.62,52.08h40.97v11.11h-40.97v-11.11ZM56.6,67.71v23.26h10.07c6.68,0,11.11-2.21,11.11-11.11,0-7.77-3.34-12.15-11.11-12.15h-10.07ZM139.93,75.69c15.54,0,26.74,8.81,26.74,34.38v7.64h-37.85c0,3.34.22,15.62,13.54,15.62,8.9,0,13.06-4.38,15.28-6.6l7.99,11.11c-1.13,1.13-8.81,10.07-23.26,10.07-16.67,0-30.21-8.94-30.21-32.29v-5.56c0-25.56,13.32-34.38,27.78-34.38ZM137.85,89.93c-3.34,0-10.07,1.26-10.07,14.58h18.75s2.43-14.58-8.68-14.58ZM56.6,105.56v25.69h12.15c6.68,0,10.07-4.73,10.07-12.5,1.13-8.9-2-13.19-8.68-13.19h-13.54Z"/>
  </g>
</svg>