<?xml version="1.0" encoding="UTF-8"?>
<svg id="Calque_2" data-name="Calque 2" xmlns="http://www.w3.org/2000/svg" viewBox="0 0 200 200">
  <defs>
    <style>
      .cls-1 {
        fill: #f2f4f3;
        stroke-width: 0px;
      }
    </style>
  </defs>
  <g id="Calque_1-2" data-name="Calque 1">
    <path class="cls-1" d="M100,0C44.77,0,0,44.77,0,100s44.77,100,100,100,100-44.77,100-100S155.23,0,100,0ZM100,20c44.1,0,80,35.9,80,80,0,4.69-.47,9.3-1.25,13.75-2.46-.55-6.09-1.21-10.31-1.25-3.12-.04-7.03.47-10.31.94,1.13-3.48,1.88-7.3,1.88-11.25,0-9.61-4.69-18.55-12.19-25.94,2.07-7.7,4.1-20.9-1.25-26.25-15.82,0-24.57,11.29-25,11.88-4.88-1.17-9.92-1.88-15.31-1.88-6.91,0-13.52,1.25-19.69,3.12l1.88-1.56s-8.79-12.19-25-12.19c-5.66,5.7-3.09,20.16-.94,27.5-7.66,7.3-12.5,15.94-12.5,25.31,0,3.28.78,6.41,1.56,9.38-2.77-.31-12.77-1.25-16.88-1.25-3.63,0-9.26.86-13.75,1.88-.62-3.98-.94-8.05-.94-12.19,0-44.1,35.9-80,80-80ZM34.69,112.81c3.95,0,15.94,1.41,17.5,1.56.2.55.39,1.05.62,1.56-4.3-.39-12.62-.98-18.12-.31-3.67.43-8.36,1.76-12.5,2.81-.31-1.25-.7-2.46-.94-3.75,4.38-.94,10.12-1.88,13.44-1.88ZM168.44,115c3.98.04,7.62.7,10,1.25-.12.66-.47,1.21-.62,1.88-2.54-.59-6.72-1.45-11.56-1.56-2.34-.04-6.09.08-9.38.31.16-.31.2-.62.31-.94,3.4-.47,7.73-.98,11.25-.94ZM40.94,117.81c5.62.04,10.9.43,13.12.62,5.23,9.77,15.82,16.99,32.19,20-4.02,2.23-7.62,5.35-10.31,9.06-2.34.2-4.8.31-7.19.31-6.95,0-11.29-6.21-15-11.56-3.75-5.35-8.36-5.94-10.94-6.25-2.62-.31-3.52,1.17-2.19,2.19,7.62,5.86,10.35,12.81,13.44,19.06,2.77,5.62,8.59,8.75,15,8.75h1.25c-.2,1.09-.31,2.11-.31,3.12v10.94c-23.09-9.34-40.66-29.06-47.19-53.44,4.1-1.02,8.71-2.07,12.19-2.5,1.6-.2,3.63-.35,5.94-.31ZM166.25,119.06c4.49.12,8.48.98,10.94,1.56-5.51,20.7-19.1,37.93-37.19,48.44v-5.94c0-8.52-6.72-19.45-16.25-24.69,15.82-2.89,26.13-9.8,31.56-19.06,3.79-.27,8.24-.39,10.94-.31ZM105,160c2.73,0,5,2.27,5,5v14.38c-3.28.43-6.6.62-10,.62v-15c0-2.73,2.27-5,5-5ZM85,170c2.73,0,5,2.27,5,5v4.38c-3.36-.43-6.76-1.05-10-1.88v-2.5c0-2.73,2.27-5,5-5ZM125,170c2.42,0,4.53,1.76,5,4.06-3.24,1.33-6.56,2.54-10,3.44v-2.5c0-2.73,2.27-5,5-5Z"/>
  </g>
</svg>