<?xml version="1.0" encoding="UTF-8"?>
<svg id="Calque_2" data-name="Calque 2" xmlns="http://www.w3.org/2000/svg" viewBox="0 0 200 200">
  <defs>
    <style>
      .cls-1 {
        fill: #f2f4f3;
        stroke-width: 0px;
      }
    </style>
  </defs>
  <g id="Calque_1-2" data-name="Calque 1">
    <path class="cls-1" d="M55.56,0C24.88,0,0,24.88,0,55.56v88.89c0,30.68,24.88,55.56,55.56,55.56h88.89c30.68,0,55.56-24.88,55.56-55.56V55.56c0-30.68-24.88-55.56-55.56-55.56H55.56ZM166.67,22.22c6.13,0,11.11,4.98,11.11,11.11s-4.98,11.11-11.11,11.11-11.11-4.98-11.11-11.11,4.98-11.11,11.11-11.11ZM100,44.44c30.68,0,55.56,24.88,55.56,55.56s-24.88,55.56-55.56,55.56-55.56-24.88-55.56-55.56,24.88-55.56,55.56-55.56ZM100,66.67c-18.41,0-33.33,14.92-33.33,33.33s14.92,33.33,33.33,33.33,33.33-14.92,33.33-33.33-14.92-33.33-33.33-33.33Z"/>
  </g>
</svg>