<?xml version="1.0" encoding="UTF-8"?>
<svg id="Calque_2" data-name="Calque 2" xmlns="http://www.w3.org/2000/svg" viewBox="0 0 200 200">
  <defs>
    <style>
      .cls-1 {
        fill: #f2f4f3;
        stroke-width: 0px;
      }
    </style>
  </defs>
  <g id="Calque_1-2" data-name="Calque 1">
    <path class="cls-1" d="M177.78,0H22.22C9.94,0,0,9.94,0,22.22v155.56c0,12.28,9.94,22.22,22.22,22.22h155.56c12.28,0,22.22-9.94,22.22-22.22V22.22c0-12.28-9.94-22.22-22.22-22.22ZM66.67,155.56h-28.03v-77.78h28.03v77.78ZM52.16,63.52c-8.57,0-14.29-5.71-14.29-13.33s5.71-13.33,15.23-13.33c8.57,0,14.29,5.71,14.29,13.33s-5.71,13.33-15.23,13.33ZM166.67,155.56h-27.13v-42.51c0-11.76-7.23-14.47-9.94-14.47s-11.76,1.81-11.76,14.47v42.51h-28.03v-77.78h28.03v10.86c3.61-6.33,10.84-10.86,24.41-10.86s24.42,10.86,24.42,35.27v42.51Z"/>
  </g>
</svg>