<?xml version="1.0" encoding="UTF-8"?>
<svg id="Calque_2" data-name="Calque 2" xmlns="http://www.w3.org/2000/svg" viewBox="0 0 115.77 35.92">
  <defs>
    <style>
      .cls-1 {
        fill: #000000;
        stroke-width: 0px;
      }
    </style>
  </defs>
  <g id="Calque_1-2" data-name="Calque 1">
    <g>
      <path class="cls-1" d="M74.65,25.26c0-3.24-1.79-6.24-4.48-8.2,1.53-1.76,2.53-4,2.53-6.44C72.7,4.91,67.32,0,61,0h-17.45v12.73h-10.39V0h-10.39v35.75h10.39v-13.63h10.39v13.63h19.51c6.27,0,11.6-4.81,11.6-10.49ZM53.93,7.77h5.01c1.9,0,3.43,1.38,3.43,3.1s-1.53,3.1-3.43,3.1h-5.01v-6.2ZM60.89,28.03h-6.96v-6.2h6.96c1.79,0,3.43,1.38,3.43,3.1s-1.53,3.1-3.43,3.1Z"/>
      <path class="cls-1" d="M73.65,0c-1.65,0-3.24.2-4.76.55,3.13,2.05,5.33,5.24,5.74,8.84,4.76.44,8.46,4.07,8.46,8.49,0,3.74-2.71,6.96-6.48,8.09-.26,3.93-2.66,7.43-6.15,9.53,1.04.15,2.1.25,3.19.25,10.91,0,19.77-7.96,19.77-17.83S84.56,0,73.65,0Z"/>
      <path class="cls-1" d="M94.97,32.58c-.88,0-1.55.67-1.55,1.55s.67,1.59,1.55,1.59,1.55-.71,1.55-1.59-.67-1.55-1.55-1.55Z"/>
      <path class="cls-1" d="M102.1,29.47c.47,0,.94.2,1.26.53l2.08-2.12c-.86-.84-2.02-1.4-3.34-1.4-2.59,0-4.72,2.12-4.72,4.74s2.12,4.7,4.72,4.7c1.43,0,2.5-.55,3.34-1.38l-2.12-2.08c-.29.35-.73.53-1.22.53-.96,0-1.75-.81-1.75-1.77s.79-1.75,1.75-1.75Z"/>
      <path class="cls-1" d="M111.08,26.49c-.53,0-1.22.14-1.65.39v-6.21h-3.14v15.05h3.14v-4.48c0-1.04.71-1.71,1.65-1.71,1.08,0,1.75.77,1.75,1.93v4.26h2.95v-4.17c0-3.1-2.14-5.07-4.7-5.07Z"/>
      <polygon class="cls-1" points="0 9.26 10.35 9.26 10.35 35.75 20.74 35.75 20.74 0 0 0 0 9.26"/>
    </g>
  </g>
</svg>